<svg width="39" height="35" viewBox="0 0 39 35" fill="none" xmlns="http://www.w3.org/2000/svg">
<path d="M35.6785 6.15364H34.3352V3.65427C34.3352 2.77014 33.9952 1.93702 33.3661 1.30792C32.7369 0.67883 31.9038 0.321777 31.0026 0.321777H19.8653C19.2022 0.321777 18.5731 0.576815 18.097 1.05289L1.45064 17.6983C0.821514 18.3274 0.481445 19.1606 0.481445 20.0447C0.481445 20.9288 0.821514 21.7619 1.45064 22.391L12.2478 33.1876C12.8769 33.8167 13.7101 34.1568 14.5943 34.1568C15.4785 34.1568 16.3116 33.8167 16.9408 33.1876L27.4149 22.7141C27.7549 22.374 27.7549 21.83 27.4149 21.4899C27.0748 21.1499 26.5307 21.1499 26.1906 21.4899L15.7165 31.9635C15.4104 32.2695 15.0194 32.4395 14.5773 32.4395C14.1352 32.4395 13.7441 32.2695 13.438 31.9635L2.64088 21.1669C2.33482 20.8608 2.16478 20.4698 2.16478 20.0277C2.16478 19.5856 2.33482 19.1946 2.64088 18.8885L19.2872 2.24306C19.4403 2.09004 19.6273 2.02203 19.8313 2.02203H30.9686C31.3937 2.02203 31.8017 2.19205 32.1078 2.4981C32.4139 2.80414 32.5839 3.1952 32.5839 3.63727V9.65616H29.4043C29.2342 9.65616 29.0642 9.60515 28.9112 9.50313C29.1662 9.36711 29.4043 9.19709 29.6083 8.99306C30.1354 8.46598 30.4415 7.75188 30.4415 6.98676C30.4415 6.22165 30.1524 5.52455 29.6083 4.98047C29.0812 4.45339 28.367 4.14734 27.6019 4.14734C26.8367 4.14734 26.1396 4.43639 25.5955 4.98047C25.0684 5.50754 24.7623 6.22165 24.7623 6.98676C24.7623 7.75188 25.0514 8.44898 25.5955 8.99306C25.9696 9.36711 26.4457 9.63915 26.9728 9.75817C27.3808 10.7273 28.35 11.3734 29.4043 11.3734H32.5839V14.7569C32.5839 14.9609 32.4989 15.165 32.3629 15.301L30.3564 17.3073C30.1864 17.4773 30.1014 17.6813 30.1014 17.9194C30.1014 18.1574 30.1864 18.3614 30.3564 18.5315C30.5265 18.7015 30.7305 18.7865 30.9686 18.7865C31.2066 18.7865 31.4107 18.7015 31.5807 18.5315L33.5871 16.5252C34.0632 16.0491 34.3182 15.42 34.3182 14.7569V11.3734H35.6615C37.1068 11.3734 38.28 10.2002 38.28 8.75502C38.28 7.30981 37.1238 6.15364 35.6785 6.15364ZM36.5797 8.77203C36.5797 9.2651 36.1716 9.67316 35.6785 9.67316H34.3352V7.87089H35.6785C36.1716 7.87089 36.5797 8.27895 36.5797 8.77203ZM28.5031 6.32366C27.7889 6.5957 27.2278 7.17379 26.9558 7.8879C26.9218 7.85389 26.8707 7.81988 26.8367 7.78588C26.6327 7.58185 26.5137 7.29281 26.5137 7.00376C26.5137 6.71472 26.6327 6.42568 26.8367 6.22165C27.0408 6.01762 27.3298 5.8986 27.6189 5.8986C27.908 5.8986 28.197 6.01762 28.4011 6.22165C28.4521 6.25565 28.4691 6.28966 28.5031 6.32366Z" fill="#3A86FF"/>
<path d="M17.2979 23.0542C17.723 23.0542 18.1311 22.8842 18.4372 22.5781C18.7432 22.2721 18.9133 21.881 18.9133 21.439C18.9133 21.0139 18.7432 20.6058 18.4372 20.2998C18.1311 19.9938 17.74 19.8237 17.2979 19.8237C16.8729 19.8237 16.4648 19.9938 16.1587 20.2998C15.8527 20.6058 15.6826 20.9969 15.6826 21.439C15.6826 21.881 15.8527 22.2721 16.1587 22.5781C16.4648 22.8842 16.8729 23.0542 17.2979 23.0542Z" fill="#3A86FF"/>
<path d="M18.7942 15.1651C19.4234 14.536 19.4234 13.5159 18.7942 12.9038C18.4882 12.5978 18.0971 12.4277 17.655 12.4277C17.2299 12.4277 16.8219 12.5978 16.5158 12.9038C15.8867 13.5329 15.8867 14.553 16.5158 15.1651C16.8219 15.4712 17.2299 15.6242 17.655 15.6242C18.0801 15.6242 18.4882 15.4712 18.7942 15.1651Z" fill="#3A86FF"/>
<path d="M8.25204 17.9534C8.25204 17.7323 8.16702 17.5113 7.99699 17.3413C7.67392 17.0182 7.11281 17.0182 6.77274 17.3413L4.68132 19.4326C4.52829 19.5856 4.42627 19.8066 4.42627 20.0447C4.42627 20.2827 4.51129 20.4867 4.68132 20.6568L13.9822 29.9571C14.1522 30.1272 14.3563 30.2122 14.5943 30.2122C14.8324 30.2122 15.0364 30.1272 15.2064 29.9571L29.1152 16.0491C29.4553 15.709 29.4553 15.1649 29.1152 14.8249L19.8144 5.52451C19.4913 5.20146 18.9132 5.20146 18.5901 5.52451L10.9216 13.1926C10.5815 13.5327 10.5815 14.0768 10.9216 14.4168C11.2616 14.7569 11.8058 14.7569 12.1458 14.4168L19.2022 7.34378L26.1056 14.2468L7.02779 19.5176L7.97998 18.5654C8.15002 18.4124 8.25204 18.1914 8.25204 17.9534ZM7.62291 21.1498L26.9048 15.828L14.6113 28.1209L7.62291 21.1498Z" fill="#3A86FF"/>
<path d="M28.2819 19.4156C28.1289 19.5686 28.0269 19.8066 28.0269 20.0277C28.0269 20.2487 28.1119 20.4697 28.2819 20.6398C28.4349 20.7928 28.656 20.8948 28.894 20.8948C29.1151 20.8948 29.3361 20.8098 29.5062 20.6398C29.6592 20.4867 29.7612 20.2487 29.7612 20.0277C29.7612 19.8066 29.6762 19.5856 29.5062 19.4156C29.1831 19.1095 28.605 19.1095 28.2819 19.4156Z" fill="#3A86FF"/>
<path d="M10.0716 16.4914C10.2246 16.3383 10.3266 16.1173 10.3266 15.8793C10.3266 15.6582 10.2416 15.4372 10.0716 15.2672C9.74852 14.9441 9.1704 14.9441 8.84734 15.2672C8.69431 15.4372 8.59229 15.6582 8.59229 15.8793C8.59229 16.1003 8.6773 16.3213 8.84734 16.4914C9.00037 16.6444 9.23841 16.7464 9.45946 16.7464C9.6805 16.7464 9.90155 16.6614 10.0716 16.4914Z" fill="#3A86FF"/>
</svg>
