<svg width="28" height="32" viewBox="0 0 28 32" fill="none" xmlns="http://www.w3.org/2000/svg">
<path d="M27.5907 6.71479L21.1549 0.405534C20.9968 0.231595 20.7596 0.136719 20.5224 0.136719H4.26698C2.36947 0.136719 0.819824 1.68636 0.819824 3.58388V28.1726C0.819824 30.0701 2.36947 31.6197 4.26698 31.6197H24.4281C26.3256 31.6197 27.8753 30.0701 27.8753 28.1726V7.37892C27.8753 7.12592 27.7646 6.88873 27.5907 6.71479ZM21.4395 3.25181L24.6969 6.44597H21.74C21.5818 6.44597 21.4395 6.31947 21.4395 6.14553V3.25181ZM26.0252 28.1726C26.0252 29.0581 25.3136 29.7697 24.4281 29.7697H4.26698C3.38148 29.7697 2.66991 29.0581 2.66991 28.1726V3.58388C2.66991 2.69837 3.38148 1.9868 4.26698 1.9868H19.6053V6.16134C19.6053 7.34729 20.5698 8.29605 21.74 8.29605H26.0252V28.1726Z" fill="#FF006E"/>
<path d="M20.7438 14.7632H7.74575C7.23974 14.7632 6.82861 15.1743 6.82861 15.6803C6.82861 16.1863 7.23974 16.5975 7.74575 16.5975H20.7438C21.2498 16.5975 21.6609 16.1863 21.6609 15.6803C21.6609 15.1743 21.2498 14.7632 20.7438 14.7632Z" fill="#FF006E"/>
<path d="M7.74575 20.2976H18.3402C18.8462 20.2976 19.2574 19.8865 19.2574 19.3805C19.2574 18.8745 18.8462 18.4634 18.3402 18.4634H7.74575C7.23974 18.4634 6.82861 18.8745 6.82861 19.3805C6.82861 19.8865 7.23974 20.2976 7.74575 20.2976Z" fill="#FF006E"/>
<path d="M19.6211 22.1479H7.74575C7.23974 22.1479 6.82861 22.5591 6.82861 23.0651C6.82861 23.5711 7.23974 23.9822 7.74575 23.9822H19.6211C20.1271 23.9822 20.5382 23.5711 20.5382 23.0651C20.5382 22.5591 20.1271 22.1479 19.6211 22.1479Z" fill="#FF006E"/>
</svg>
