<svg width="22" height="22" viewBox="0 0 22 22" fill="none" xmlns="http://www.w3.org/2000/svg">
<path d="M21.8639 21.9307L21.8746 14.2551C21.8746 10.497 21.0677 7.60938 16.6726 7.60938C14.56 7.60938 13.148 8.76654 12.5641 9.87063H12.5004V7.94909H8.33887V21.9201H12.6703V15.0089C12.6703 13.1829 13.0206 11.4206 15.2713 11.4206C17.4901 11.4206 17.5325 13.5014 17.5325 15.1257V21.9307H21.8639Z" fill="#868695"/>
<path d="M5.63207 7.94922H1.29004V21.9202H5.63207V7.94922Z" fill="#868695"/>
<path d="M3.45549 0.995117C2.06477 0.995117 0.939453 2.12044 0.939453 3.51116C0.939453 4.90189 2.06477 6.04844 3.45549 6.04844C4.84622 6.04844 5.97154 4.90189 5.97154 3.51116C5.97154 2.12044 4.84622 0.995117 3.45549 0.995117Z" fill="#868695"/>
</svg>
