<svg width="38" height="34" viewBox="0 0 38 34" fill="none" xmlns="http://www.w3.org/2000/svg">
<path d="M36.2155 0.0825195H22.1358C21.7412 0.0825195 21.3825 0.316734 21.2211 0.695081C21.0776 1.07343 21.1494 1.48781 21.4363 1.77607L25.2746 5.6316L15.6789 17.4324L14.6924 15.6848C14.531 15.3965 14.244 15.2164 13.9032 15.1984C13.5804 15.1623 13.2575 15.3065 13.0603 15.5767L1.20461 30.9628C0.630657 31.7015 0.702401 32.7104 1.34809 33.377C1.70681 33.7373 2.17315 33.9175 2.63948 33.9175C3.03407 33.9175 3.41073 33.7914 3.75151 33.5392L15.643 24.4048L16.8089 26.2965C16.9703 26.5488 17.2393 26.7289 17.5263 26.765C17.8312 26.801 18.1182 26.6929 18.3334 26.4767L32.0006 12.7481L35.4981 16.2613C35.7851 16.5496 36.1976 16.6217 36.5742 16.4775C36.9509 16.3154 37.1841 15.9551 37.1841 15.5587V1.07343C37.202 0.532932 36.7715 0.0825195 36.2155 0.0825195ZM35.2291 13.1625L32.718 10.6402C32.5387 10.46 32.2876 10.3519 32.0185 10.3519C31.7495 10.3519 31.4984 10.46 31.319 10.6402L17.8491 24.2066L16.7551 22.441C16.6116 22.2068 16.3605 22.0446 16.0914 21.9906C15.8224 21.9365 15.5354 22.0086 15.3202 22.1708L3.4466 31.2871L13.7059 17.9729L14.6565 19.6665C14.818 19.9547 15.1049 20.1349 15.4278 20.1709C15.7506 20.207 16.0735 20.0628 16.2708 19.8106L27.3372 6.19011C27.6601 5.79375 27.6242 5.21722 27.2655 4.85689L24.5034 2.06433H35.2291V13.1625Z" fill="#FFBE0B"/>
<path d="M12.0385 12.8202C13.3064 12.8202 14.3343 11.7878 14.3343 10.5141C14.3343 9.24049 13.3064 8.20801 12.0385 8.20801C10.7705 8.20801 9.74268 9.24049 9.74268 10.5141C9.74268 11.7878 10.7705 12.8202 12.0385 12.8202Z" fill="#FFBE0B"/>
<path d="M14.711 8.91069C15.1953 8.91069 15.5899 8.51432 15.5899 8.02788C15.5899 7.54143 15.1953 7.16309 14.711 7.16309C14.2268 7.16309 13.8501 7.55945 13.8501 8.0459C13.8501 8.53234 14.2268 8.91069 14.711 8.91069Z" fill="#FFBE0B"/>
<path d="M26.7636 26.4589C28.0315 26.4589 29.0594 25.4264 29.0594 24.1528C29.0594 22.8792 28.0315 21.8467 26.7636 21.8467C25.4956 21.8467 24.4678 22.8792 24.4678 24.1528C24.4678 25.4264 25.4956 26.4589 26.7636 26.4589Z" fill="#FFBE0B"/>
<path d="M24.0914 25.7378C23.6071 25.7378 23.2305 26.1342 23.2305 26.6206C23.2305 27.107 23.6251 27.5034 24.0914 27.5034C24.5577 27.5034 24.9703 27.107 24.9703 26.6206C24.9703 26.1342 24.5577 25.7378 24.0914 25.7378Z" fill="#FFBE0B"/>
</svg>
