<svg width="40" height="28" viewBox="0 0 40 28" fill="none" xmlns="http://www.w3.org/2000/svg">
<path d="M35.6466 0.549805C33.3563 0.549805 31.487 2.41187 31.487 4.69331C31.487 6.62247 32.8005 8.26645 34.6698 8.70261V9.42395H27.3779C26.839 9.42395 26.4012 9.86011 26.4012 10.3969V11.957H21.3491V8.70261C23.2015 8.26645 24.5319 6.6057 24.5319 4.69331C24.5319 2.41187 22.6626 0.549805 20.3723 0.549805C18.082 0.549805 16.2296 2.41187 16.2296 4.69331C16.2296 6.62247 17.5431 8.26645 19.4124 8.70261V11.957H14.3603V10.3801C14.3603 9.84333 13.9224 9.40718 13.3835 9.40718H6.09165V8.70261C7.9441 8.26645 9.27449 6.6057 9.27449 4.69331C9.27449 2.41187 7.4052 0.549805 5.13175 0.549805C2.85829 0.549805 0.972168 2.41187 0.972168 4.69331C0.972168 6.6057 2.28572 8.26645 4.155 8.70261V10.3801C4.155 10.917 4.59285 11.3531 5.13175 11.3531H12.4236V11.957H9.57761C9.03872 11.957 8.60087 12.3932 8.60087 12.93V16.738C8.60087 17.0903 8.78612 17.409 9.08924 17.5768L17.4926 22.3409V26.2328C17.4926 26.5851 17.6947 26.9206 18.0147 27.0884C18.1494 27.1555 18.3178 27.2058 18.4693 27.2058C18.6546 27.2058 18.8398 27.1555 19.0082 27.038L22.831 24.505C23.1005 24.3204 23.2689 24.0185 23.2689 23.6997V22.3409L31.6722 17.5768C31.9754 17.409 32.1606 17.0903 32.1606 16.738V12.9132C32.1606 12.3764 31.7227 11.9402 31.1839 11.9402H28.3378V11.3531H35.6297C36.1686 11.3531 36.6065 10.917 36.6065 10.3801V8.70261C38.4589 8.26645 39.7893 6.6057 39.7893 4.69331C39.7893 2.41187 37.9369 0.549805 35.6466 0.549805ZM37.8527 4.69331C37.8527 5.90113 36.8591 6.89088 35.6466 6.89088C34.4341 6.89088 33.4405 5.90113 33.4405 4.69331C33.4405 3.48549 34.4341 2.49574 35.6466 2.49574C36.8591 2.49574 37.8527 3.46871 37.8527 4.69331ZM18.9577 20.915L10.5544 16.1509V13.8862H30.224V16.1509L21.8206 20.915C21.5175 21.0828 21.3322 21.4015 21.3322 21.7538V23.1629L19.4629 24.4043V21.7538C19.4461 21.4015 19.2608 21.0828 18.9577 20.915ZM5.13175 2.49574C6.34426 2.49574 7.33784 3.48549 7.33784 4.69331C7.33784 5.90113 6.34426 6.89088 5.13175 6.89088C3.91924 6.89088 2.92565 5.90113 2.92565 4.69331C2.92565 3.48549 3.9024 2.49574 5.13175 2.49574ZM18.1831 4.69331C18.1831 3.48549 19.1766 2.49574 20.3892 2.49574C21.6017 2.49574 22.5952 3.48549 22.5952 4.69331C22.5952 5.90113 21.6017 6.89088 20.3892 6.89088C19.1598 6.89088 18.1831 5.90113 18.1831 4.69331Z" fill="#FB5607"/>
</svg>
