<svg width="23" height="19" viewBox="0 0 23 19" fill="none" xmlns="http://www.w3.org/2000/svg">
<path d="M19.8576 4.75767L19.8687 5.33617C19.8687 11.277 15.3569 18.1412 7.10931 18.1412C4.58183 18.1412 2.22062 17.3958 0.236328 16.1053C0.579977 16.1498 0.934711 16.172 1.30053 16.172C3.40677 16.172 5.33564 15.4489 6.86543 14.2363C4.9033 14.2029 3.25157 12.9013 2.67512 11.1101C2.95226 11.1657 3.2294 11.188 3.51762 11.188C3.92778 11.188 4.32686 11.1324 4.69268 11.0322C2.64187 10.6206 1.10099 8.80721 1.10099 6.62669V6.58219C1.69961 6.91594 2.3869 7.11619 3.12963 7.13844C1.9324 6.33744 1.14534 4.94679 1.14534 3.4004C1.14534 2.57714 1.36704 1.79838 1.75503 1.13088C3.94995 3.85653 7.26451 5.63655 10.9892 5.82568C10.9116 5.50305 10.8784 5.15817 10.8784 4.80217C10.8784 2.32127 12.8737 0.307617 15.3569 0.307617C16.6428 0.307617 17.8179 0.852748 18.6382 1.72051C19.647 1.52026 20.6114 1.15313 21.4871 0.641371C21.1546 1.68713 20.4451 2.57714 19.5139 3.1334C20.4229 3.02215 21.2876 2.7774 22.0968 2.42139C21.4871 3.32253 20.7222 4.12354 19.8576 4.75767Z" fill="white"/>
</svg>
