<svg width="22" height="23" viewBox="0 0 22 23" fill="none" xmlns="http://www.w3.org/2000/svg">
<path d="M18.6817 0.995117H2.98423C1.48873 0.995117 0.272949 2.1033 0.272949 3.7064V19.4038C0.272949 21.0069 1.48873 22.1151 2.98423 22.1151H18.6817C20.1772 22.1151 21.393 21.0069 21.393 19.4038V3.7064C21.393 2.1033 20.1772 0.995117 18.6817 0.995117ZM14.7116 4.29814C14.7116 3.77095 15.1419 3.35135 15.6584 3.35135H18.0469C18.5741 3.35135 18.9937 3.78171 18.9937 4.29814V6.57906C18.9937 7.10625 18.5633 7.52586 18.0469 7.52586H15.6584C15.1312 7.52586 14.7116 7.0955 14.7116 6.57906V4.29814ZM10.8598 7.40751C13.2053 7.40751 15.0989 9.2473 15.0989 11.5175C15.0989 13.7876 13.1946 15.6274 10.8598 15.6274C8.51437 15.6274 6.62078 13.7876 6.62078 11.5175C6.62078 9.2473 8.51437 7.40751 10.8598 7.40751ZM19.0044 18.8551C19.0044 19.3178 18.6279 19.6943 18.1652 19.6943H3.45762C2.99499 19.6943 2.61842 19.3178 2.61842 18.8551V9.92512H4.55504C4.3829 10.4954 4.28607 11.1086 4.28607 11.7326C4.28607 15.2509 7.22329 18.0912 10.8491 18.0912C14.4749 18.0912 17.4121 15.2401 17.4121 11.7326C17.4121 11.1086 17.3153 10.4954 17.1431 9.92512H19.0044V18.8551Z" fill="#868695"/>
</svg>
